<svg width="24" height="23" viewBox="0 0 24 23" fill="none" xmlns="http://www.w3.org/2000/svg">
<path fill-rule="evenodd" clip-rule="evenodd" d="M5.61382 2.10278H18.6036C20.1809 2.10278 21.3871 3.32013 21.3871 4.91205V14.2763C21.3871 15.8682 20.1809 17.0855 18.6036 17.0855H7.84064L4.40762 20.5503C4.22206 20.7376 4.03649 20.8312 3.75813 20.8312C3.66535 20.8312 3.47978 20.8312 3.387 20.7376C3.01586 20.6439 2.83029 20.2694 2.83029 19.8948V4.91205C2.83029 3.32013 4.03649 2.10278 5.61382 2.10278ZM18.6036 15.2127C19.1603 15.2127 19.5315 14.8381 19.5315 14.2763V4.91205C19.5315 4.3502 19.1603 3.97563 18.6036 3.97563H5.61382C5.05711 3.97563 4.68598 4.3502 4.68598 4.91205V17.6474L6.82001 15.4936C7.00558 15.3063 7.19115 15.2127 7.4695 15.2127H18.6036Z" fill="black"/>
<mask id="mask0_0_1066" style="mask-type:luminance" maskUnits="userSpaceOnUse" x="2" y="2" width="20" height="19">
<path fill-rule="evenodd" clip-rule="evenodd" d="M5.61382 2.10278H18.6036C20.1809 2.10278 21.3871 3.32013 21.3871 4.91205V14.2763C21.3871 15.8682 20.1809 17.0855 18.6036 17.0855H7.84064L4.40762 20.5503C4.22206 20.7376 4.03649 20.8312 3.75813 20.8312C3.66535 20.8312 3.47978 20.8312 3.387 20.7376C3.01586 20.6439 2.83029 20.2694 2.83029 19.8948V4.91205C2.83029 3.32013 4.03649 2.10278 5.61382 2.10278ZM18.6036 15.2127C19.1603 15.2127 19.5315 14.8381 19.5315 14.2763V4.91205C19.5315 4.3502 19.1603 3.97563 18.6036 3.97563H5.61382C5.05711 3.97563 4.68598 4.3502 4.68598 4.91205V17.6474L6.82001 15.4936C7.00558 15.3063 7.19115 15.2127 7.4695 15.2127H18.6036Z" fill="white"/>
</mask>
<g mask="url(#mask0_0_1066)">
<rect x="0.974609" y="0.22998" width="22.2682" height="22.4741" fill="#6E6B7B"/>
</g>
</svg>
